<?xml version="1.0" encoding="utf-8"?>
<!-- Generator: Adobe Illustrator 19.2.1, SVG Export Plug-In . SVG Version: 6.00 Build 0)  -->
<svg version="1.1" id="Capa_1" xmlns="http://www.w3.org/2000/svg" xmlns:xlink="http://www.w3.org/1999/xlink" x="0px" y="0px"
	 viewBox="0 0 512 512" style="enable-background:new 0 0 512 512;" xml:space="preserve">
<style type="text/css">
	.st0{fill:#FFFFFF;}
	.st1{fill:#006DF0;}
</style>
<rect class="st0" width="512" height="512"/>
<g>
	<path class="st1" d="M332.1,0H55.5v512h401.1V124.5L332.1,0z M337.1,29.1l90.3,90.3h-90.3V29.1z M72.5,494.9V17.1H320v119.5h119.5
		v358.4H72.5z"/>
	<path class="st1" d="M294.4,315.7c4.7,0,8.5-3.8,8.5-8.5c0-4.7-3.8-8.5-8.5-8.5H149.3c-4.7,0-8.5,3.8-8.5,8.5
		c0,4.7,3.8,8.5,8.5,8.5H294.4z"/>
	<path class="st1" d="M379.7,256H320c-4.7,0-8.5,3.8-8.5,8.5s3.8,8.5,8.5,8.5h59.7c4.7,0,8.5-3.8,8.5-8.5S384.4,256,379.7,256z"/>
	<path class="st1" d="M183.5,264.5c0,4.7,3.8,8.5,8.5,8.5h85.3c4.7,0,8.5-3.8,8.5-8.5s-3.8-8.5-8.5-8.5H192
		C187.3,256,183.5,259.8,183.5,264.5z"/>
	<path class="st1" d="M143.3,258.5c-1.5,1.6-2.5,3.8-2.5,6.1c0,2.2,0.9,4.4,2.5,6c1.5,1.6,3.8,2.6,6.1,2.6s4.4-0.9,6.1-2.5
		c1.5-1.6,2.5-3.8,2.5-6.1c0-2.2-0.9-4.4-2.5-6.1C152.2,255.3,146.3,255.4,143.3,258.5z"/>
	<path class="st1" d="M331,301.1c-1.5,1.6-2.5,3.7-2.5,6.1c0,2.3,0.9,4.4,2.5,6.1c1.6,1.5,3.8,2.5,6.1,2.5s4.4-0.9,6.1-2.5
		c1.6-1.6,2.5-3.8,2.5-6.1c0-2.2-0.9-4.4-2.5-6.1C339.9,298,334.3,298,331,301.1z"/>
	<path class="st1" d="M373.7,301.1c-1.5,1.6-2.5,3.7-2.5,6.1c0,2.3,0.9,4.4,2.5,6.1c1.6,1.5,3.8,2.5,6.1,2.5c2.2,0,4.4-0.9,6.1-2.6
		c1.6-1.6,2.5-3.8,2.5-6c0-2.2-0.9-4.4-2.5-6.1C382.5,298,376.9,298,373.7,301.1z"/>
	<path class="st1" d="M196.5,342.7c-18.7,9.7-25,28.3-27.3,47.6c-3.5-3-7.1-5.9-10.6-8.9c-8.4-7-20.5,5-12.1,12.1
		c8,6.7,16,13.4,23.9,20.1c5.6,4.7,14.3,1.7,14.6-6c0.6-18.5,1.5-40.5,20-50.1C214.8,352.4,206.2,337.7,196.5,342.7z"/>
	<path class="st1" d="M311.1,376.4c-12.4-0.8-30.7,18.4-40.2,1.3c-2.2-4-7.8-5.4-11.7-3.1c-12.1,7.4-27.9,18.1-40.6,4.3
		c-7.4-8.1-19.5,4-12.1,12.1c16,17.3,36.5,12.1,54.6,2.2c4.1,4.6,9.1,7.9,15.7,9.2c6.8,1.4,34.3-9.7,35.8-7.7
		c6.4,8.8,21.2,0.3,14.7-8.6C323,380.1,318.9,376.9,311.1,376.4z"/>
	<path class="st1" d="M244.6,204.5l5.8-4.1l-2.9-6.4c-2.7-5.8-6.9-10.3-12.4-13.1l-18.1-9.2c8.3-5.3,14.3-13.3,17.9-23.9
		c5.8-3.6,9.5-9.9,9.5-16.9v-5.7c0-5.8-2.5-11.2-6.8-14.9c-3-16.2-14-33.7-47.3-33.7c-1.3,0-2.6,0.1-3.8,0.2c-4.5,0.4-11,0-16.5-3.7
		c-2.6-1.7-3.9-3.1-4.6-3.9c-2.7-3.4-7.2-4.6-11.3-3c-4,1.7-6.4,5.7-5.9,10.1c0.3,2.2,0.6,4.8,1.2,7.5c0.7,3.6,0.8,4.6,0.7,4.9
		c-0.1,0.3-0.6,1.4-1,2.2c-0.6,1.3-1.3,2.9-2.2,5c-1.9,4.5-3.2,9.4-4,14.7c-4.2,3.7-6.6,9.1-6.6,14.8v5.7c0,7,3.7,13.4,9.5,16.9
		c3.6,10.5,9.5,18.5,17.8,23.8l-18.8,9.3c-5.2,2.9-9.3,7.4-11.8,13.1l-2.7,6.3l5.6,4c16.1,11.5,34.9,17.5,54.5,17.5
		C209.9,221.9,228.6,215.9,244.6,204.5z M153.7,195.5l20.9-10.3c4.4-2.2,7.2-6.6,7.2-11.6v-12.1l-5.2-2.2
		c-7.8-3.3-12.9-9.8-15.5-19.8l-1.2-4.5l-4.5-1.4c-1-0.3-2-1.3-2-2.7v-5.7c0-1.2,0.8-2.1,1.6-2.5l4-2.1l0.5-4.5
		c0.5-5.1,1.6-9.7,3.3-13.8c0.7-1.8,1.4-3.1,1.9-4.2c1.3-2.8,2.1-4.9,2.4-7.3c6.2,2.6,13.3,3.6,20.8,3.1c0.8-0.1,1.6-0.1,2.5-0.1
		c24.9,0,29.6,11.4,30.9,22.5l0.5,4.5l4,2.1c0.8,0.4,1.6,1.3,1.6,2.5v5.7c0,1.4-1.1,2.4-2,2.7l-4.5,1.4l-1.2,4.5
		c-2.7,10-7.7,16.5-15.5,19.8l-5.2,2.2v12.2c0,4.9,2.7,9.3,7,11.5l20.6,10.5C204.1,207.7,176,207.7,153.7,195.5z"/>
</g>
</svg>
